<?xml version="1.0" standalone="no"?>
<!DOCTYPE svg PUBLIC "-//W3C//DTD SVG 20010904//EN"
 "http://www.w3.org/TR/2001/REC-SVG-20010904/DTD/svg10.dtd">
<svg version="1.0" xmlns="http://www.w3.org/2000/svg"
 width="442.000000pt" height="465.000000pt" viewBox="0 0 442.000000 465.000000"
 preserveAspectRatio="xMidYMid meet">

<g transform="translate(0.000000,465.000000) scale(0.100000,-0.100000)"
fill="#000000" stroke="none">
<path d="M2217 4313 l-1867 -3 0 -1996 0 -1996 23 6 c12 3 547 6 1190 6 l1167
0 0 240 c0 132 -2 240 -4 240 -2 0 -55 -23 -118 -51 -228 -103 -357 -144 -553
-175 -134 -22 -364 -24 -490 -5 -329 49 -591 211 -771 476 -119 174 -168 297
-204 510 -40 235 -42 733 -4 919 60 300 203 570 400 757 112 105 210 162 372
215 201 66 389 94 622 94 217 0 422 -35 660 -111 102 -33 270 -62 363 -63 31
-1 57 -2 57 -3 0 -1 -38 -31 -84 -67 -46 -36 -116 -100 -156 -143 -74 -81
-249 -307 -311 -403 -20 -30 -55 -84 -77 -119 -27 -41 -42 -58 -42 -45 0 28
-48 170 -76 226 -51 101 -156 167 -299 188 -92 14 -163 7 -222 -21 -89 -43
-197 -195 -251 -354 -53 -153 -78 -395 -68 -657 8 -196 26 -318 66 -448 88
-286 309 -459 584 -460 98 0 231 34 306 78 84 50 198 164 234 237 62 124 21
268 -90 316 -56 23 -220 43 -291 34 -28 -3 -79 -3 -112 1 l-61 7 0 213 0 214
483 0 c265 0 539 -3 610 -7 l127 -6 0 -916 0 -916 380 0 380 0 0 1998 c0 1098
-1 1996 -2 1995 -2 -2 -843 -4 -1871 -5z"/>
<path d="M2881 1829 c-37 -37 -38 -57 -11 -174 25 -109 25 -218 0 -315 -45
-170 -13 -229 117 -218 53 5 60 8 98 52 62 70 75 125 82 339 5 168 4 186 -15
229 -39 88 -88 118 -192 118 -41 0 -53 -5 -79 -31z"/>
</g>
</svg>
